# xmcd
#
# Track frame offsets:
#	150
#	17217
#	34931
#	57159
#	72509
#	89338
#	105833
#	121885
#	141409
#	159182
#	180008
#	197822
#	221990
#	239581
#	254499
#	271632
#	289716
#	306338
#	328972
#	347405
#
# Disc length: 4780 seconds
#
# Revision: 0
# Processed by: cddbd v1.5.2PL0 Copyright (c) Steve Scherf et al.
# Submitted via: audiograbber 1.83.01
#
DISCID=2812aa14
DTITLE=Gulbahar Kultur - Made In India
DYEAR=2006
DGENRE=
TTITLE0=Karsh Kale - Home
TTITLE1=Asha Bhosle - Jhumka gira re (DJ Kool remix)
TTITLE2=Kumar Sanu and Alka Yagnik and Hunterz - Baby girl (Aap ka aana)
TTITLE3=Gunjan feat Meta4 - Kabhi aar kabhi paar
TTITLE4=DJ Hyacinth D' Souza - Humma humma
TTITLE5=Bhangra Brothers - Jaana
TTITLE6=Amar Arshi - Hai O Rabba
TTITLE7=Daler Mehndi - Mar gyi main mar gyi
TTITLE8=Bombay Vikings - Jambola
TTITLE9=Vasundhara Das and Sukhwinder Singh - Rabba rabba
TTITLE10=DJ Tin Tin  - Aao twist kare
TTITLE11=Bally Sagoo feat Saud Khan - Lal lai gal
TTITLE12=DJ Vivek - Sholay theme
TTITLE13=Achanak - Teri Mubatten Mar Sutia
TTITLE14=Bikram Singh - Hauli hauli
TTITLE15=Masala Sound System - Cyber punjabi (Dancehall India ver)
TTITLE16=KS Bhamra and Jammys - Gora Chita Rang
TTITLE17=Shweta Shetty feat DJ Suku and Mc Logic - Saajna
TTITLE18=Luckwinder Lucky - Booti
TTITLE19=Taufiq - Ji ji rhy (Lejhim mix)
EXTD=
EXTT0=
EXTT1=
EXTT2=
EXTT3=
EXTT4=
EXTT5=
EXTT6=
EXTT7=
EXTT8=
EXTT9=
EXTT10=
EXTT11=
EXTT12=
EXTT13=
EXTT14=
EXTT15=
EXTT16=
EXTT17=
EXTT18=
EXTT19=
PLAYORDER=
